HIERARCHY
ROOT root
{
	OFFSET	0	13.1	24.9
	CHANNELS 6  Xposition Yposition Zposition Xrotation Yrotation Zrotation
	JOINT spine_1
	{
		OFFSET	0	9.99999	0
		CHANNELS 3  Xrotation Yrotation Zrotation
		JOINT spine_2
		{
			OFFSET	0	112	-10
			CHANNELS 3  Xrotation Yrotation Zrotation
			JOINT spine_3
			{
				OFFSET	0	206.5	19.3
				CHANNELS 3  Xrotation Yrotation Zrotation
				JOINT spine_4
				{
					OFFSET	0	110.4	14.6
					CHANNELS 3  Xrotation Yrotation Zrotation
					JOINT neck_1
					{
						OFFSET	0	71.8	-50.3
						CHANNELS 3  Xrotation Yrotation Zrotation
						JOINT neck_2
						{
							OFFSET	0	86.2	-25.8
							CHANNELS 3  Xrotation Yrotation Zrotation
							JOINT head_ee
							{
								OFFSET	0	179.8	-8.7
								CHANNELS 3  Xrotation Yrotation Zrotation
								End Site
								{
									OFFSET	1	0	0
								}
							}
						}
					}
					JOINT left_clavicle
					{
						OFFSET	-43.2	22.4	-70.8
						CHANNELS 3  Xrotation Yrotation Zrotation
						JOINT left_shoulder
						{
							OFFSET	-93.9	-5.79999	48.7
							CHANNELS 3  Xrotation Yrotation Zrotation
							JOINT left_elbow
							{
								OFFSET	-291.4	-30.8	15.2
								CHANNELS 3  Xrotation Yrotation Zrotation
								JOINT left_lowarm_twist
								{
									OFFSET	-110.7	-3.89999	13.6
									CHANNELS 3  Xrotation Yrotation Zrotation
									JOINT left_hand
									{
										OFFSET	-110.7	-3.89999	13.6
										CHANNELS 3  Xrotation Yrotation Zrotation
										JOINT left_ee
										{
											OFFSET	-80.8	-5.10001	12.1
											CHANNELS 3  Xrotation Yrotation Zrotation
											End Site
											{
												OFFSET	1	0	0
											}
										}
									}
								}
							}
						}
					}
					JOINT right_clavicle
					{
						OFFSET	43.2	22.4	-70.8
						CHANNELS 3  Xrotation Yrotation Zrotation
						JOINT right_shoulder
						{
							OFFSET	93.9	-5.79999	48.7
							CHANNELS 3  Xrotation Yrotation Zrotation
							JOINT right_elbow
							{
								OFFSET	291.4	-30.8	15.2
								CHANNELS 3  Xrotation Yrotation Zrotation
								JOINT right_lowarm_twist
								{
									OFFSET	110.7	-3.89999	13.6
									CHANNELS 3  Xrotation Yrotation Zrotation
									JOINT right_hand
									{
										OFFSET	110.7	-3.89999	13.6
										CHANNELS 3  Xrotation Yrotation Zrotation
										JOINT right_ee
										{
											OFFSET	80.8	-5.10001	12.1
											CHANNELS 3  Xrotation Yrotation Zrotation
											End Site
											{
												OFFSET	1	0	0
											}
										}
									}
								}
							}
						}
					}
				}
			}
		}
	}
	JOINT left_hip
	{
		OFFSET	-82.8	-127.5	0.300001
		CHANNELS 3  Xrotation Yrotation Zrotation
		JOINT left_knee
		{
			OFFSET	-28.2	-396.7	2.2
			CHANNELS 3  Xrotation Yrotation Zrotation
			JOINT left_ankle
			{
				OFFSET	-11.7	-411.3	35.4
				CHANNELS 3  Xrotation Yrotation Zrotation
				JOINT left_toes
				{
					OFFSET	0	-60	-88.6
					CHANNELS 3  Xrotation Yrotation Zrotation
					JOINT left_foot_ee
					{
						OFFSET	-22.5	-16.5	-42.2
						CHANNELS 3  Xrotation Yrotation Zrotation
						End Site
						{
							OFFSET	1	0	0
						}
					}
				}
			}
		}
	}
	JOINT right_hip
	{
		OFFSET	82.8	-127.5	0.300001
		CHANNELS 3  Xrotation Yrotation Zrotation
		JOINT right_knee
		{
			OFFSET	28.2	-396.7	2.2
			CHANNELS 3  Xrotation Yrotation Zrotation
			JOINT right_ankle
			{
				OFFSET	11.7	-411.3	35.4
				CHANNELS 3  Xrotation Yrotation Zrotation
				JOINT right_toes
				{
					OFFSET	0	-60	-88.6
					CHANNELS 3  Xrotation Yrotation Zrotation
					JOINT right_foot_ee
					{
						OFFSET	22.5	-16.5	-42.2
						CHANNELS 3  Xrotation Yrotation Zrotation
						End Site
						{
							OFFSET	1	0	0
						}
					}
				}
			}
		}
	}
}
MOTION
Frames: 9
Frame Time: 0.02
2646.51 703.132 -1386.01 -4.50183 57.937 4.07453 1.43917 0.295201 -0.0362541 1.43913 0.29691 -0.017396 1.43903 0.294981 0.038 1.43915 0.297281 -0.00906414 -9.29974 18.075 -1.12245 -9.64407 34.7419 3.43317 -0.0 0.0 -0.0 6.09388 18.9575 11.4317 -6.62928 -18.5947 49.1872 3.70431 -61.3954 2.19975 -50.8691 -4.17398 4.72758 -1.94408 25.5561 -0.807423 -0.0 0.0 -0.0 12.6864 19.3604 -25.5608 -36.174 28.3899 -58.6852 0.703544 19.2142 -0.119087 81.6896 4.03473 8.70213 -7.53396 -29.4844 30.5619 0.0 0.0 0.0 -16.0736 18.0398 10.577 -9.3499 0.270593 1.40782 39.6487 -5.16919 -4.90379 -8.32479 0.0 0.0 -0.0 0.0 -0.0 28.1895 4.66581 -11.5137 1.03217 0.0438777 0.152312 -18.8139 24.5854 -3.38276 -4.49082 0.0 0.0 0.0 0.0 0.0 
2635.75 706.681 -1389.21 -5.67392 58.4871 5.26442 1.64228 0.266037 0.0294441 1.64225 0.263624 0.0463131 1.64246 0.250786 0.0935359 1.64255 0.262411 0.0527548 -9.12322 18.2729 -1.24192 -9.44933 35.1746 3.30981 -0.0 0.0 -0.0 5.68538 19.4592 10.7798 -7.16369 -18.4928 49.8115 3.72126 -61.5051 2.21464 -50.4916 -4.12951 4.70837 -1.96773 26.0669 -0.693034 -0.0 0.0 -0.0 12.8205 19.5962 -25.8563 -35.3637 29.0947 -59.2251 0.709105 19.3549 -0.120923 82.9546 4.18333 8.76747 -7.54954 -29.78 30.3515 0.0 0.0 0.0 -16.2684 17.5429 10.4448 -6.14164 0.203709 0.920099 34.5108 -4.06189 -4.41322 -8.12483 0.0 0.0 -0.0 0.0 -0.0 27.9293 4.70826 -11.446 0.576088 0.0241505 0.0851053 -12.8717 25.4774 -2.32841 -4.19861 0.0 0.0 0.0 0.0 0.0 
2618.56 710.42 -1394.37 -6.1257 58.7195 5.86369 1.50216 0.242112 0.0664123 1.50214 0.237395 0.081684 1.50248 0.218254 0.124074 1.50253 0.23511 0.0880473 -8.75544 18.1951 -1.31145 -9.01997 35.0314 3.08989 -0.0 0.0 -0.0 5.48382 20.1743 10.4443 -7.77588 -18.3537 50.1468 3.61677 -60.8165 2.12311 -50.7815 -4.16365 4.72315 -1.99197 26.47 -0.632639 -0.0 0.0 -0.0 12.8227 19.568 -25.8633 -35.4658 30.446 -58.9028 0.716758 19.548 -0.123472 82.6166 4.14348 8.75033 -7.5481 -29.7007 30.4258 0.0 0.0 0.0 -16.5114 17.3251 10.3588 -6.51239 0.212833 0.976263 33.0885 -5.2183 -4.28754 -7.96027 0.0 0.0 -0.0 0.0 -0.0 26.9134 4.67358 -11.3842 1.82594 0.0794861 0.268903 -13.5447 25.091 -2.4408 -4.51216 0.0 0.0 0.0 0.0 0.0 
2604.78 711.386 -1399.03 -6.67873 59.1191 6.18464 1.59421 0.233411 0.0543458 1.59418 0.22948 0.0690883 1.59446 0.212974 0.109892 1.59452 0.227656 0.0748777 -8.61363 18.1847 -1.49148 -8.85499 35.1174 2.86075 -0.0 0.0 -0.0 5.3684 20.8342 10.2454 -8.66918 -18.1454 50.6945 3.50532 -60.0478 2.02617 -50.7374 -4.15845 4.72091 -1.98514 26.6612 -0.502501 -0.0 0.0 -0.0 12.72 19.8421 -25.6059 -34.9127 31.1738 -58.8453 0.729036 19.8568 -0.127611 82.9399 4.18159 8.76673 -7.53684 -29.7783 30.2712 0.0 0.0 0.0 -16.809 17.0391 10.3738 -5.91245 0.197886 0.885407 30.9067 -5.25056 -4.06233 -7.85336 0.0 0.0 -0.0 0.0 -0.0 26.3233 4.86796 -10.8885 2.07572 0.0910262 0.305491 -12.0104 25.2728 -2.16514 -4.57907 0.0 0.0 0.0 0.0 0.0 
2587.56 711.916 -1402.54 -6.94493 60.1165 6.57544 1.65954 0.00870882 -0.0439375 1.65954 0.011487 -0.0432943 1.65953 0.0191655 -0.040485 1.65953 0.0125311 -0.0430037 -8.11157 18.4834 -2.28185 -8.27326 36.1611 1.97839 -0.0 0.0 -0.0 5.24059 20.9587 10.0515 -9.85053 -18.0016 51.5552 3.42146 -59.4448 1.95373 -50.0183 -4.07393 4.68386 -1.68398 26.5217 1.09418 -0.0 0.0 -0.0 12.6311 19.7045 -25.4095 -33.7901 31.7913 -58.1226 0.738315 20.0895 -0.130781 83.0843 4.19864 8.77398 -7.55694 -29.6384 30.5489 0.0 0.0 0.0 -17.5826 17.8605 9.72724 -5.05849 0.174972 0.756358 31.8274 -4.78183 -4.15223 -7.53972 0.0 0.0 -0.0 0.0 -0.0 25.1247 5.14784 -10.2748 2.24543 0.0989578 0.330322 -8.57637 27.4192 -1.57921 -2.79943 0.0 0.0 0.0 0.0 0.0 
2574.09 715.302 -1406.83 -6.53273 60.0261 5.92348 1.66186 0.0408507 0.0469883 1.66186 0.0377779 0.0494925 1.66189 0.0281543 0.0555339 1.66189 0.0365715 0.0503905 -8.23218 18.2812 -2.78008 -8.40177 36.1374 1.47938 -0.0 0.0 -0.0 4.82422 21.6227 9.42068 -10.7748 -17.8775 52.185 3.34659 -58.8875 1.88944 -50.1377 -4.08793 4.69008 -1.6732 26.5726 1.17729 -0.0 0.0 -0.0 12.6014 20.4481 -25.2874 -31.6855 32.608 -58.4402 0.747677 20.3235 -0.134015 83.3544 4.23059 8.78744 -7.49497 -29.544 30.2463 0.0 0.0 0.0 -17.442 17.1466 9.57049 -4.68626 0.164381 0.700215 30.0414 -3.96055 -3.9533 -7.69757 0.0 0.0 -0.0 0.0 -0.0 24.4559 5.2202 -10.3774 2.80652 0.125705 0.412251 -9.33272 27.1856 -1.71557 -2.64389 0.0 0.0 0.0 0.0 0.0 
2561.43 715.645 -1407.68 -6.7448 60.1099 6.49054 1.69764 -0.051793 0.0112069 1.69764 -0.0524011 0.00788844 1.69763 -0.0529632 -0.00173296 1.69764 -0.0525722 0.00665334 -8.26654 18.247 -3.15858 -8.43473 36.3363 1.10905 -0.0 0.0 -0.0 4.59302 22.0083 9.07722 -11.8787 -17.7266 52.7951 3.29105 -58.4622 1.842 -49.908 -4.06101 4.67808 -1.53647 26.2584 1.79023 -0.0 0.0 -0.0 12.4749 20.6857 -24.977 -30.6646 33.0446 -58.206 0.75016 20.3854 -0.134878 83.488 4.24642 8.79404 -7.47418 -29.4613 30.198 0.0 0.0 0.0 -17.6575 17.2666 9.3857 -4.66032 0.16363 0.696305 30.0785 -3.71129 -3.95428 -7.56734 0.0 0.0 -0.0 0.0 -0.0 23.4117 5.21838 -10.6113 3.33853 0.151808 0.489693 -7.97067 27.889 -1.47498 -1.9872 0.0 0.0 0.0 0.0 0.0 
2553.21 715.983 -1412.82 -7.23535 60.163 6.98059 1.61492 -0.0490244 -0.0945043 1.61493 -0.0429115 -0.0974323 1.615 -0.0244054 -0.103628 1.61499 -0.0404652 -0.0984734 -8.70585 18.1565 -3.56906 -8.94069 36.487 0.846062 -0.0 0.0 -0.0 4.48065 22.4319 8.90779 -12.5179 -17.5333 53.1157 3.24023 -58.0638 1.79878 -49.7674 -4.04456 4.67068 -1.45103 26.0422 2.16732 -0.0 0.0 -0.0 12.409 20.5453 -24.8355 -29.3798 33.3955 -58.4368 0.789855 21.3689 -0.149025 83.6806 4.26924 8.80348 -7.40775 -29.4089 29.8231 0.0 0.0 0.0 -17.8835 17.5833 8.8697 -5.48539 0.186668 0.82083 30.5009 -3.23797 -3.99379 -7.075 0.0 0.0 -0.0 0.0 -0.0 22.9405 5.64327 -10.1778 4.33003 0.202374 0.633375 -6.7386 28.6478 -1.25651 -1.41245 0.0 0.0 0.0 0.0 0.0 
2540.35 713.45 -1417.15 -7.94758 59.8556 7.8856 1.67052 -0.00873355 -0.17983 1.67054 0.00272715 -0.180021 1.67053 0.0353712 -0.176533 1.67049 0.00704728 -0.179904 -9.05476 17.9181 -3.90458 -9.33546 36.2944 0.583353 -0.0 0.0 -0.0 4.29125 22.9744 8.63029 -13.8294 -17.1955 53.1776 3.19597 -57.7093 1.76129 -49.5267 -4.01642 4.65792 -1.36482 25.5402 2.42453 -0.0 0.0 -0.0 12.4021 20.6709 -24.8101 -28.5712 33.4313 -58.2994 0.819427 22.0931 -0.159974 83.8997 4.29527 8.81414 -7.38689 -29.4251 29.6721 0.0 0.0 0.0 -17.6826 17.8627 8.48992 -6.18119 0.2047 0.926087 30.8986 -2.94657 -4.03256 -6.75781 0.0 0.0 -0.0 0.0 -0.0 22.0935 6.34221 -10.5374 5.18578 0.248016 0.756679 -5.67719 29.4094 -1.06716 -0.944888 0.0 0.0 0.0 0.0 0.0 
